<svg width="14" height="14" viewBox="0 0 14 14" fill="none" xmlns="http://www.w3.org/2000/svg">
<path d="M13.7805 12.74L10.3528 9.24C11.2622 8.19 11.7519 6.93 11.7519 5.6C11.6819 2.52 9.09371 0 5.87593 0C2.65816 0 0 2.52 0 5.67C0 8.82 2.65816 11.34 5.87593 11.34C7.06511 11.34 8.25429 10.99 9.23361 10.29L12.7312 13.79C12.8711 13.93 13.0809 14 13.2908 14C13.5007 14 13.7105 13.93 13.8504 13.79C14.0603 13.51 14.0603 13.02 13.7805 12.74ZM5.87593 1.47C8.25429 1.47 10.2129 3.36 10.2129 5.67C10.2129 7.98 8.25429 9.87 5.87593 9.87C3.49758 9.87 1.53893 7.98 1.53893 5.67C1.53893 3.36 3.49758 1.47 5.87593 1.47Z" fill="#767676"/>
</svg>
