<svg xmlns="http://www.w3.org/2000/svg" xmlns:xlink="http://www.w3.org/1999/xlink" width="64" height="64" viewBox="0 0 64 64"><defs><path id="hxaca" d="M795.24 5888.24a6 6 0 0 1-8.48 0l-10.67-10.66a28 28 0 1 1 8.49-8.49l10.66 10.67a6 6 0 0 1 0 8.48zM787 5854a26 26 0 1 0-52 0 26 26 0 0 0 52 0zm6.83 27.17l-10.4-10.4a28.2 28.2 0 0 1-5.66 5.66l10.4 10.4a4 4 0 0 0 5.66-5.66zM785 5854a24 24 0 1 1-48 0 24 24 0 0 1 48 0zm-2 0a22 22 0 1 0-44 0 22 22 0 0 0 44 0zm-5 0a1 1 0 0 1-2 0 15 15 0 0 0-15-15 1 1 0 1 1 0-2 17 17 0 0 1 17 17z"/></defs><g><g transform="translate(-733 -5826)"><use fill="#fff" xlink:href="#hxaca"/></g></g></svg>