<svg xmlns="http://www.w3.org/2000/svg" xmlns:xlink="http://www.w3.org/1999/xlink" width="56" height="65" viewBox="0 0 56 65"><defs><path id="ce66a" d="M1033.97 2449.64a8.25 8.25 0 0 1-16.51 0 8.25 8.25 0 0 1 16.51 0zm-1.9 0a6.34 6.34 0 0 0-12.7 0 6.34 6.34 0 0 0 12.7 0zm12.02 30.4v-3.02H1029a5.52 5.52 0 0 0-5.52 5.5c0 3.04 2.48 5.5 5.52 5.5h15.09v-3.54a.95.95 0 0 1 1.91 0v16.04a2.48 2.48 0 0 1-2.49 2.48h-23.28a.95.95 0 1 1 0-1.9h23.28c.32 0 .58-.27.58-.58v-10.6H1029a7.43 7.43 0 0 1-7.43-7.4c0-4.08 3.33-7.4 7.43-7.4h15.09v-10.6a.58.58 0 0 0-.58-.57H992.5a.58.58 0 0 0-.58.57v36c0 .31.26.58.58.58h23.28a.95.95 0 1 1 0 1.9h-23.28a2.48 2.48 0 0 1-2.49-2.48v-36a2.48 2.48 0 0 1 2.49-2.47h6.5a11.58 11.58 0 0 1-1.78-6.17 11.68 11.68 0 0 1 17.48-10.1 11.7 11.7 0 0 1 22.71 3.86 11.68 11.68 0 0 1-17.48 10.1c-.29.8-.66 1.58-1.12 2.3h24.71a2.48 2.48 0 0 1 2.49 2.48v15.51a.95.95 0 0 1-1.91 0zm-40.66-18a8.24 8.24 0 0 1-2.8-6.16 8.25 8.25 0 0 1 13.4-6.44c.01-.6.07-1.18.16-1.74a9.77 9.77 0 0 0-15.07 8.18 9.7 9.7 0 0 0 2.2 6.17zm11.81-6.16c0-1.34-.27-1.55-.6-2.52-.77-2.28-3.31-3.8-5.75-3.8a6.34 6.34 0 0 0-6.34 6.32c0 2.94 2.06 5.51 4.92 6.17h2.85a6.36 6.36 0 0 0 4.92-6.17zm3.03 2.74c-.45-.38-.87-.79-1.26-1.22a8.29 8.29 0 0 1-2.66 4.65h2.1a9.73 9.73 0 0 0 1.82-3.43zm7.44.76a9.77 9.77 0 0 0 9.78-9.74 9.77 9.77 0 0 0-19.55 0 9.77 9.77 0 0 0 9.77 9.74zm10.28 23.21a3.4 3.4 0 0 1-3.4 3.4h-3.32a3.4 3.4 0 0 1-3.4-3.4 3.4 3.4 0 0 1 3.4-3.4h3.32a3.4 3.4 0 0 1 3.4 3.4zm-1.9 0a1.5 1.5 0 0 0-1.5-1.49h-3.32c-.83 0-1.5.67-1.5 1.49s.67 1.49 1.5 1.49h3.32c.82 0 1.5-.67 1.5-1.49z"/></defs><g><g transform="translate(-990 -2438)"><use fill="#404a4d" xlink:href="#ce66a"/></g></g></svg>