<svg xmlns="http://www.w3.org/2000/svg" xmlns:xlink="http://www.w3.org/1999/xlink" width="65" height="65" viewBox="0 0 65 65"><defs><path id="rl8fa" d="M1031.25 2197.66a8.8 8.8 0 0 1-8.75 8.81 8.8 8.8 0 0 1-7.76-12.87.95.95 0 0 1 1.28-.41c.46.24.64.82.4 1.29a6.88 6.88 0 0 0 6.08 10.08c3.78 0 6.85-3.1 6.85-6.9 0-3.8-3.07-6.9-6.85-6.9-1.4 0-2.73.42-3.88 1.2a.95.95 0 0 1-1.32-.24.96.96 0 0 1 .25-1.33 8.65 8.65 0 0 1 4.95-1.55 8.8 8.8 0 0 1 8.75 8.82zm23.6 43.91a.95.95 0 0 1-.8.43h-63.1a.96.96 0 0 1-.88-1.32l1.52-3.68a.95.95 0 0 1 1.24-.51c.49.2.72.76.52 1.25l-.98 2.35h6.47l3.35-8.11h-6.47l-.9 2.2a.95.95 0 1 1-1.76-.73l6.38-15.46c.15-.35.18-1 .56-1h10c-1.82-2.47-3.67-4.53-4.85-6.95-2.1-4.29-3.15-8.45-3.15-12.38a20.6 20.6 0 0 1 20.5-20.66 20.6 20.6 0 0 1 20.5 20.66c0 3.93-1.05 8.1-3.15 12.38-1.18 2.42-2.03 4.48-3.85 6.96h9c.38 0 .41.64.56 1l9.37 22.68c.12.3.09.63-.09.9zm-42.54-23.82l.01.02 1.13 1.4c3.8 4.57 7.63 7.9 9.05 9.08a73.06 73.06 0 0 0 10.18-10.48l.02-.02c6.91-8.83 8.4-15.76 8.4-20.1a18.7 18.7 0 0 0-18.6-18.74 18.7 18.7 0 0 0-18.6 18.75c0 4.34 1.5 11.26 8.4 20.09zm-13.71 7.27h6.46l2.94-6.02h-7zm30.73 15.07l-16.9-14.37-5.92 14.37zm2.94 0h5.58l-9.54-8.35a.96.96 0 0 1 .62-1.67h19.56l-1.3-3.13h-5.8a.95.95 0 0 1-.94-.96c0-.53.42-.96.95-.96h5l-2.4-6.02h-11c-.29.36.3 1.04 0 1.4a73.14 73.14 0 0 1-4.2 4.62h8.8c.53 0 .95.43.95.96s-.42.96-.95.96h-10.75a58.48 58.48 0 0 1-3.77 3.3.94.94 0 0 1-1.16 0 71.6 71.6 0 0 1-10.8-10.92h-1.65l-2.9 7.03a.95.95 0 0 1-.88.59h-7.88l-1.3 3.13h7.1c.32 0 .61.16.79.42.18.27.2.6.09.9l-3.6 8.7h3.56l6.73-16.3a.95.95 0 0 1 1.5-.37zm20.36 0l-3.35-8.11h-17.8l9.26 8.1z"/></defs><g><g transform="translate(-990 -2177)"><use fill="#404a4d" xlink:href="#rl8fa"/></g></g></svg>