<svg xmlns="http://www.w3.org/2000/svg" xmlns:xlink="http://www.w3.org/1999/xlink" width="68" height="65" viewBox="0 0 68 65"><defs><path id="8ptna" d="M238.6 2467.74c0 2.2-1.83 3.98-4.07 3.98a4.03 4.03 0 0 1-4.06-3.98c0-2.2 1.82-3.98 4.06-3.98a4.03 4.03 0 0 1 4.06 3.98zm-2 0c0-1.12-.93-2.03-2.07-2.03-1.14 0-2.07.91-2.07 2.03 0 1.12.93 2.03 2.07 2.03 1.14 0 2.07-.91 2.07-2.03zm12.59 0c0 2.2-1.82 3.98-4.07 3.98a4.03 4.03 0 0 1-4.06-3.98c0-2.2 1.82-3.98 4.06-3.98a4.03 4.03 0 0 1 4.07 3.98zm-2 0c0-1.12-.92-2.03-2.07-2.03-1.14 0-2.07.91-2.07 2.03 0 1.12.93 2.03 2.07 2.03 1.15 0 2.08-.91 2.08-2.03zm12.6 0c0 2.2-1.83 3.98-4.07 3.98a4.03 4.03 0 0 1-4.07-3.98c0-2.2 1.83-3.98 4.07-3.98a4.03 4.03 0 0 1 4.06 3.98zm-2 0c0-1.12-.93-2.03-2.07-2.03-1.14 0-2.07.91-2.07 2.03 0 1.12.93 2.03 2.07 2.03 1.14 0 2.07-.91 2.07-2.03zm-19.2 9.72c0 2.2-1.82 3.98-4.06 3.98a4.03 4.03 0 0 1-4.06-3.98c0-2.2 1.82-3.99 4.06-3.99a4.03 4.03 0 0 1 4.06 3.99zm-1.99 0c0-1.12-.93-2.03-2.07-2.03-1.14 0-2.07.9-2.07 2.03 0 1.12.93 2.03 2.07 2.03 1.14 0 2.07-.91 2.07-2.03zm23.18 0c0 2.2-1.82 3.98-4.06 3.98a4.03 4.03 0 0 1-4.07-3.98c0-2.2 1.83-3.99 4.07-3.99a4.03 4.03 0 0 1 4.06 3.99zm-2 0c0-1.12-.92-2.03-2.06-2.03-1.14 0-2.07.9-2.07 2.03 0 1.12.93 2.03 2.07 2.03 1.14 0 2.07-.91 2.07-2.03zm-8.6 0c0 2.2-1.81 3.98-4.06 3.98a4.03 4.03 0 0 1-4.06-3.98c0-2.2 1.82-3.99 4.06-3.99a4.03 4.03 0 0 1 4.07 3.99zm-1.98 0c0-1.12-.93-2.03-2.08-2.03-1.14 0-2.07.9-2.07 2.03 0 1.12.93 2.03 2.07 2.03 1.15 0 2.08-.91 2.08-2.03zm1.99 9.72c0 2.2-1.82 3.98-4.07 3.98a4.03 4.03 0 0 1-4.06-3.98c0-2.2 1.82-3.99 4.06-3.99a4.03 4.03 0 0 1 4.07 3.99zm-2 0c0-1.12-.92-2.04-2.07-2.04-1.14 0-2.07.92-2.07 2.04 0 1.11.93 2.03 2.07 2.03 1.15 0 2.08-.92 2.08-2.03zm-8.6 0c0 2.2-1.82 3.98-4.06 3.98a4.03 4.03 0 0 1-4.06-3.98c0-2.2 1.82-3.99 4.06-3.99a4.03 4.03 0 0 1 4.06 3.99zm-1.99 0c0-1.12-.93-2.04-2.07-2.04-1.14 0-2.07.92-2.07 2.04 0 1.11.93 2.03 2.07 2.03 1.14 0 2.07-.92 2.07-2.03zm-9.79-18c.39.38.39 1 0 1.38a1 1 0 0 1-.7.28 1 1 0 0 1-.7-.28l-1.47-1.44-1.47 1.44a1 1 0 0 1-.7.28 1 1 0 0 1-.7-.28.96.96 0 0 1 0-1.38l1.46-1.44-1.47-1.44a.96.96 0 0 1 0-1.38 1.01 1.01 0 0 1 1.41 0l1.47 1.44 1.46-1.44a1.01 1.01 0 0 1 1.41 0c.39.38.39 1 0 1.38l-1.46 1.44zm0 9.71c.39.38.39 1 0 1.38a1 1 0 0 1-1.4 0l-1.47-1.43-1.47 1.43a1 1 0 0 1-1.4 0 .96.96 0 0 1 0-1.38l1.46-1.43-1.47-1.44a.96.96 0 0 1 0-1.38 1.01 1.01 0 0 1 1.41 0l1.47 1.44 1.46-1.44a1.01 1.01 0 0 1 1.41 0c.39.38.39 1 0 1.38l-1.46 1.44zm0 11.1a1 1 0 0 1-1.4 0l-1.47-1.43-1.47 1.43a1 1 0 0 1-1.4 0 .96.96 0 0 1 0-1.38l1.46-1.43-1.47-1.44a.96.96 0 0 1 0-1.38 1.01 1.01 0 0 1 1.41 0l1.47 1.43 1.46-1.43a1.01 1.01 0 0 1 1.41 0c.39.38.39 1 0 1.38l-1.46 1.44 1.46 1.43c.39.38.39 1 0 1.38zM274 2500h-16l-2.6 2.71c-.18.19-.44.29-.7.29h-12.55c-.55 0-1-.44-1-.98s.45-.97 1-.97L253 2501v-11c0-1.5 1.47-3 3-3h11v-30h-55v43.28c0 .42.34.77.77.77h24.73c.55 0 1 .43 1 .97s-.45.98-1 .98h-24.73a2.75 2.75 0 0 1-2.77-2.72v-55.44c0-1.5 1.24-2.72 2.77-2.72l8.23-.12v-3c0-.54-.05-1 .5-1s1.5.46 1.5 1v3l7.17.12v-3.14c0-.54.44-.98 1-.98.54 0 .83.46.83 1v3h7v-3c0-.54.28-1 .83-1 .55 0 1.17.46 1.17 1v3h7v-3c0-.54-.06-1 .5-1 .54 0 1.5.46 1.5 1v3h7v-3c0-.54.6-1 1.16-1 .55 0 1 .44 1 .98v3.14l8.84-.12c1.49 0 1.58 10.27 1.65 11.71l4.7 24.23a.98.98 0 0 1-.8 1.14 1 1 0 0 1-1.16-.77L269 2464v24a8.4 8.4 0 0 1-1 2l-8 8h15c.92 0 1.14-.33.99-1.12l-2.72-14.02a.98.98 0 0 1 .8-1.14 1 1 0 0 1 1.16.78l2.72 14.02c.38 2-1.79 3.48-3.95 3.48zm-62-45h55c0-.42.31-10.93-.12-10.93L259 2444v4c0 .54-.3 1.43-.84 1.43-.55 0-1.16-.89-1.16-1.43v-4h-7v4c0 .54-.96 1.43-1.5 1.43-.56 0-.5-.89-.5-1.43v-4h-7v4c0 .54-.62 1.43-1.17 1.43-.55 0-.83-.89-.83-1.43v-4h-7v5c0 .54-.29.43-.84.43s-1.16-.89-1.16-1.43v-4h-7v4c0 .54-.95 1.43-1.5 1.43s-.5-.89-.5-1.43v-4l-8.23.07a.78.78 0 0 0-.78.77v11zm54 34h-10c-.43 0-1-.42-1 0v10c1-.98 10-9.02 11-10z"/></defs><g><g transform="translate(-210 -2438)"><use fill="#404a4d" xlink:href="#8ptna"/></g></g></svg>