<svg width="17" height="17" viewBox="0 0 17 17" fill="none" xmlns="http://www.w3.org/2000/svg">
<path d="M14.4152 10.6639C13.6199 9.85932 12.7251 9.25588 11.6316 8.85359C12.7251 7.94843 13.3216 6.43983 13.3216 5.03181C13.3216 2.21577 11.0351 0.00316134 8.35088 0.00316134C5.76608 -0.0974117 3.57895 2.21577 3.57895 4.93124C3.57895 6.33926 4.17544 7.84786 5.26901 8.75301C4.27485 9.15531 3.38012 9.75874 2.48538 10.5633C0.994152 12.1725 0 14.2845 0 16.5977V17H1.78947V16.6983C1.78947 12.9771 4.77193 9.95989 8.45029 9.95989C12.1287 9.95989 15.1111 12.9771 15.1111 16.6983V17H17V16.6983C16.9006 14.2845 16.0058 12.2731 14.4152 10.6639ZM8.54971 1.7129C10.2398 1.7129 11.731 3.12092 11.731 4.93124C11.731 6.74155 10.3392 8.14958 8.54971 8.14958C6.76023 8.14958 5.26901 6.74155 5.26901 4.93124C5.26901 3.12092 6.76023 1.7129 8.54971 1.7129Z" fill="#767676"/>
</svg>
