<svg width="15" height="15" viewBox="0 0 15 15" fill="none" xmlns="http://www.w3.org/2000/svg">
<path d="M14.6485 5.85812C14.5586 5.57618 14.3118 5.37593 14.02 5.34926L10.0551 4.98436L8.48733 1.26484C8.37173 0.992248 8.10845 0.815796 7.81594 0.815796C7.52342 0.815796 7.26015 0.992248 7.14455 1.26548L5.57675 4.98436L1.61129 5.34926C1.31993 5.37657 1.07384 5.57618 0.983396 5.85812C0.892948 6.14006 0.976478 6.4493 1.19689 6.64424L4.19383 9.30833L3.3101 13.2541C3.24543 13.5442 3.35653 13.8441 3.59402 14.0181C3.72167 14.1116 3.87102 14.1592 4.02163 14.1592C4.15148 14.1592 4.28029 14.1237 4.39589 14.0536L7.81594 11.9818L11.2347 14.0536C11.4849 14.2062 11.8003 14.1923 12.0372 14.0181C12.2748 13.8436 12.3858 13.5436 12.3211 13.2541L11.4374 9.30833L14.4344 6.64477C14.6548 6.4493 14.7389 6.14059 14.6485 5.85812Z" fill="#FFC107"/>
</svg>
