<?xml version="1.0" encoding="utf-8"?>
<!-- Generator: Adobe Illustrator 16.0.0, SVG Export Plug-In . SVG Version: 6.00 Build 0)  -->
<!DOCTYPE svg PUBLIC "-//W3C//DTD SVG 1.1//EN" "http://www.w3.org/Graphics/SVG/1.1/DTD/svg11.dtd">
<svg version="1.1" id="Слой_1" xmlns="http://www.w3.org/2000/svg" xmlns:xlink="http://www.w3.org/1999/xlink" x="0px" y="0px"
	 width="269.545px" height="220.194px" viewBox="0 0 269.545 220.194" enable-background="new 0 0 269.545 220.194"
	 xml:space="preserve">
<g>
	<defs>
		<rect id="SVGID_1_" width="269.545" height="220.194"/>
	</defs>
	<clipPath id="SVGID_2_">
		<use xlink:href="#SVGID_1_"  overflow="visible"/>
	</clipPath>
	<path clip-path="url(#SVGID_2_)" fill="#FFFFFF" d="M141.715,95.972c0,0,40.855-3.034,22.11-37.444
		C148.829,30.891,152.255,14.644,171.46,0c0,0-62.965,16.076-26.219,65.7C158.695,87.361,141.715,95.972,141.715,95.972"/>
	<path clip-path="url(#SVGID_2_)" fill="#FFFFFF" d="M131.776,96.507c0,0,22.763-10.001,5.076-25.896
		c-14.171-12.778-15.497-22.766-7.473-35.029c0,0-32.771,21.935-1.709,42.892C139.751,88.145,131.776,96.507,131.776,96.507"/>
	<path clip-path="url(#SVGID_2_)" fill="#FAAF40" d="M135.727,189.667c13.711-2.38,22.72-7.225,22.72-7.225
		c8.066-5.185,14.646-13.029,18.955-21.029h13.813c11.52,0,20.891-9.482,20.891-21.001s-9.371-20.999-20.891-20.999h-7.792v-10.476
		c0-2.332-2.316-3.524-4.648-3.524H65.654c-2.332,0-4.231,1.192-4.231,3.524v28.609c0,5.529,0.786,10.982,2.279,16.137
		C81.623,167.259,105.545,181.046,135.727,189.667 M183.423,137.546v-10.133h7.792c6.866,0,12.451,5.635,12.451,12.499
		c0,6.865-5.585,12.501-12.451,12.501h-10.464C182.206,148.414,183.423,142.856,183.423,137.546"/>
	<path clip-path="url(#SVGID_2_)" fill="#FFFFFF" d="M4.43,94.883c0,0,75.657,145.159,265.115,100.764
		C269.545,195.647,85.715,285.687,4.43,94.883"/>
	<path clip-path="url(#SVGID_2_)" fill="#FFFFFF" d="M0,111.924c0,0,24.063,80.628,116.625,108.27
		C116.625,220.194,25.375,209.403,0,111.924"/>
</g>
<text transform="matrix(1 0 0 1 79.8682 152.1265)" fill="#873E2D" font-family="'BebasNeueBold'" font-size="38.2409">Coffee</text>
</svg>
