<?xml version="1.0" encoding="utf-8"?>
<!-- Generator: Adobe Illustrator 16.0.0, SVG Export Plug-In . SVG Version: 6.00 Build 0)  -->
<!DOCTYPE svg PUBLIC "-//W3C//DTD SVG 1.1//EN" "http://www.w3.org/Graphics/SVG/1.1/DTD/svg11.dtd">
<svg version="1.1" fill="#f64c4c" xmlns="http://www.w3.org/2000/svg" xmlns:xlink="http://www.w3.org/1999/xlink" x="0px" y="0px"
	 width="2267.721px" height="2267.721px" viewBox="0 0 2267.721 2267.721" enable-background="new 0 0 2267.721 2267.721"
	 xml:space="preserve">
<path fill="#f64c4c" stroke-miterlimit="10" d="M1133.86,130.36c0,0-303.5,556-315.5,568s-176,84-176,84
	s-208,32-220,36s-188,0-188,0l-164,56l531.75,524l-147.75,736l679.5-328l668.5,328l-112-736l540-536l-740-124L1133.86,130.36z"/>
<path fill="#f64c4c" stroke-miterlimit="10" d="M458.132,2187.975c-8.402,0-16.805-2.598-23.867-7.752
	c-12.503-9.092-18.753-24.477-16.115-39.699l125.468-731.375L12.235,891.241c-11.041-10.797-15.019-26.912-10.27-41.565
	c4.79-14.694,17.495-25.41,32.798-27.643l734.299-106.715l328.425-665.415c6.819-13.883,20.945-22.65,36.37-22.65l0,0
	c15.465,0,29.591,8.768,36.37,22.65l328.384,665.415l734.339,106.715c15.304,2.232,27.968,12.908,32.798,27.643
	c4.75,14.653,0.813,30.809-10.27,41.565l-531.382,517.988l125.428,731.336c2.598,15.223-3.653,30.605-16.115,39.699
	c-12.502,9.174-29.104,10.35-42.783,3.084l-656.769-345.27l-656.851,345.27C471.081,2186.434,464.586,2187.975,458.132,2187.975z
	 M127.799,890.511l487.747,475.449c9.539,9.295,13.923,22.771,11.649,35.924l-115.158,671.301l602.945-316.938
	c11.812-6.252,25.897-6.252,37.79,0l602.864,316.938l-115.117-671.301c-2.273-13.152,2.11-26.588,11.649-35.924l487.746-475.449
	l-674.021-97.947c-13.232-1.908-24.639-10.229-30.564-22.203l-301.473-610.738L832.385,770.401
	c-5.926,11.975-17.332,20.296-30.565,22.204L127.799,890.511z"/>
<path  fill="#f64c4c" stroke-miterlimit="10" d="M1034.36,914.36"/>
</svg>
