<svg xmlns="http://www.w3.org/2000/svg" xmlns:xlink="http://www.w3.org/1999/xlink" width="19" height="19" viewBox="0 0 19 19"><defs><path id="aqxda" d="M850 6349.24v8.51a5.25 5.25 0 0 1-5.24 5.25h-8.52a5.25 5.25 0 0 1-5.24-5.25v-8.51a5.25 5.25 0 0 1 5.24-5.24h8.52c2.89 0 5.24 2.35 5.24 5.24zm-1.69 8.51v-8.51c0-1.96-1.6-3.56-3.55-3.56h-8.52a3.56 3.56 0 0 0-3.55 3.56v8.51c0 1.97 1.6 3.56 3.55 3.56h8.52c1.96 0 3.55-1.6 3.55-3.56zm-2.91-4.25a4.9 4.9 0 1 1-9.8-.01 4.9 4.9 0 0 1 9.8 0zm-1.69 0a3.21 3.21 0 1 0-6.43 0 3.21 3.21 0 0 0 6.43 0zm2.77-5.97a1.24 1.24 0 0 1 0 1.75c-.24.23-.55.37-.88.37a1.25 1.25 0 0 1-1.24-1.24 1.24 1.24 0 0 1 1.24-1.24c.33 0 .65.13.88.36z"/></defs><g><g transform="translate(-831 -6344)"><use fill="#404a4d" xlink:href="#aqxda"/></g></g></svg>