<svg xmlns="http://www.w3.org/2000/svg" width="380" height="538" viewBox="0 0 380 538">
  <defs>
    <style>
      .cls-1 {
        fill-rule: evenodd;
        opacity: 0.03;
      }
    </style>
  </defs>
  <path id="noteboook.svg" class="cls-1" d="M451,270.178H70.993v-0.722H451v0.722Zm0,17.984H70.993V287.44H451v0.722Zm0,17.983H70.993v-0.721H451v0.721Zm0,17.988H70.993v-0.722H451v0.722Zm0,17.983H70.993V341.4H451v0.721Zm0,17.984H70.993v-0.722H451V360.1Zm0,17.984H70.993v-0.722H451v0.722Zm0,17.987H70.993v-0.722H451v0.722Zm0,17.984H70.993v-0.722H451v0.722Zm0,17.984H70.993v-0.722H451v0.722Zm0,17.984H70.993V449.3H451v0.722Zm0,17.987H70.993v-0.722H451v0.722Zm0,17.984H70.993v-0.722H451v0.722Zm0,17.984H70.993v-0.722H451v0.722Zm0,17.983H70.993V521.24H451v0.721Zm0,17.987H70.993v-0.721H451v0.721Zm0,17.984H70.993V557.21H451v0.722Zm0,17.984H70.993v-0.722H451v0.722Zm0,17.984H70.993v-0.722H451V593.9Zm0,17.987H70.993v-0.722H451v0.722Zm0,17.984H70.993v-0.722H451v0.722Zm0,17.984H70.993v-0.722H451v0.722Zm0,17.984H70.993v-0.722H451v0.722Zm0,17.987H70.993V683.1H451v0.722Zm0,17.984H70.993v-0.722H451v0.722Zm0,17.984H70.993v-0.722H451v0.722Zm0,17.987H70.993v-0.722H451v0.722Zm0,17.983H70.993v-0.721H451v0.721Zm0,17.984H70.993v-0.722H451v0.722Zm0,17.984H70.993V791.01H451v0.722ZM441.08,799h-0.855V261h0.855V799Zm-17.968,0h-0.855V261h0.855V799Zm-17.964,0h-0.856V261h0.856V799Zm-17.965,0h-0.856V261h0.856V799Zm-17.965,0h-0.855V261h0.855V799Zm-17.968,0H350.4V261h0.855V799Zm-17.965,0H332.43V261h0.855V799Zm-17.965,0h-0.855V261h0.855V799Zm-17.965,0H296.5V261h0.855V799Zm-17.968,0h-0.855V261h0.855V799Zm-17.964,0h-0.855V261h0.855V799Zm-17.965,0H242.6V261h0.855V799Zm-17.967,0h-0.855V261h0.855V799Zm-17.964,0h-0.856V261h0.856V799Zm-17.967,0h-0.855V261h0.855V799ZM171.6,799H170.74V261h0.855V799Zm-17.966,0h-0.855V261h0.855V799Zm-17.966,0h-0.855V261h0.855V799ZM117.7,799h-0.855V261H117.7V799Zm-17.967,0H98.876V261h0.855V799Zm-17.965,0H80.911V261h0.855V799Z" transform="translate(-71 -261)"/>
</svg>
