<?xml version="1.0"?>
<svg xmlns="http://www.w3.org/2000/svg" height="512px" viewBox="-48 0 480 480" width="512px"><g><path d="m152 432h16v16h-16zm0 0" data-original="#000000" class="active-path" data-old_color="#000000" fill="#383838"/><path d="m176 432h56v16h-56zm0 0" data-original="#000000" class="active-path" data-old_color="#000000" fill="#383838"/><path d="m128 48h24v-16h-32c-4.398438 0-8 3.601562-8 8v32h16zm0 0" data-original="#000000" class="active-path" data-old_color="#000000" fill="#383838"/><path d="m382.101562 42.898438c-1.5-1.796876-3.800781-2.898438-6.101562-2.898438h-72v-32c0-4.398438-3.601562-8-8-8h-208c-4.398438 0-8 3.601562-8 8v32h-72c-4.398438 0-8 3.601562-8 8 0 .5 0 1 .101562 1.398438l27.199219 149.800781c3.5 19 20.097657 32.800781 39.398438 32.800781h13.300781v5.5c-.101562 19.101562 7.5 37.398438 21.101562 50.898438l44.296876 44.300781c4.5 4.5 9.601562 8.300781 15.101562 11.300781h-.5v56h-32c-4.398438 0-8 3.601562-8 8v64c0 4.398438 3.601562 8 8 8h128c4.398438 0 8-3.601562 8-8v-64c0-4.398438-3.601562-8-8-8h-32v-56h-.5c5.601562-3 10.699219-6.800781 15.101562-11.300781l44.296876-44.300781c13.5-13.5 21.101562-31.796876 21.101562-50.898438v-5.5h13.300781c19.300781 0 35.898438-13.800781 39.398438-32.800781l27.199219-149.800781c.402343-2.296876-.199219-4.699219-1.796876-6.5zm-315.402343 173.101562c-11.597657 0-21.5-8.300781-23.597657-19.699219l-25.5-140.300781h62.398438v160zm181.300781 248h-112v-48h112zm-40-64h-32v-50c10.5 2.699219 21.5 2.699219 32 0zm80-162.5c0 14.898438-5.898438 29.101562-16.398438 39.601562l-44.300781 44.296876c-19.5 19.5-51.101562 19.5-70.601562 0l-44.300781-44.296876c-10.5-10.5-16.398438-24.703124-16.398438-39.601562v-221.5h192zm52.898438-41.199219c-2.097657 11.398438-12 19.699219-23.597657 19.699219h-13.300781v-160h62.398438zm0 0" data-original="#000000" class="active-path" data-old_color="#000000" fill="#383838"/><path d="m141.101562 109.101562c-1.601562 1.597657-2.402343 3.699219-2.300781 5.898438l.800781 23.300781-17 15.898438c-3.203124 3-3.402343 8.101562-.402343 11.300781.101562.101562.199219.300781.402343.398438l17 15.902343-.800781 23.300781c-.101562 2.199219.800781 4.398438 2.300781 5.898438 1.5 1.601562 3.699219 2.5 5.898438 2.300781l23.300781-.800781 15.898438 17c3 3.199219 8.101562 3.398438 11.300781.398438.101562-.097657.300781-.199219.398438-.398438l15.902343-17 23.300781.800781c2.199219.097657 4.398438-.699219 5.898438-2.300781 1.601562-1.601562 2.398438-3.699219 2.300781-5.898438l-.800781-23.300781 17-15.902343c3.199219-3 3.398438-8.097657.398438-11.296876-.097657-.101562-.199219-.300781-.398438-.402343l-16.898438-15.898438.796876-23.300781c.101562-2.199219-.796876-4.398438-2.296876-5.898438-1.5-1.601562-3.703124-2.5-5.902343-2.300781l-23.300781.800781-15.898438-17c-3.199219-3.203124-8.398438-3.203124-11.699219 0l-15.902343 17-23.296876-.800781c-2.300781-.199219-4.5.699219-6 2.300781zm13.898438 13.597657 18.300781.601562c2.300781.097657 4.597657-.800781 6.097657-2.5l12.5-13.402343 12.5 13.402343c1.601562 1.699219 3.800781 2.597657 6.101562 2.5l18.300781-.601562-.601562 18.402343c-.097657 2.296876.800781 4.5 2.5 6.097657l13.402343 12.5-13.402343 16.5c-1.699219 1.601562-2.597657 3.800781-2.5 6.101562l.601562 18.398438-18.300781-.597657c-2.300781-.101562-4.601562.796876-6.101562 2.5l-12.398438 13.296876-12.5-13.398438c-1.5-1.601562-3.601562-2.5-5.898438-2.5h-.203124l-18.296876.601562.597657-18.402343c.101562-2.300781-.800781-4.5-2.5-6.097657l-13.398438-16.5 13.398438-12.5c1.699219-1.601562 2.601562-3.800781 2.5-6.101562zm0 0" data-original="#000000" class="active-path" data-old_color="#000000" fill="#383838"/></g> </svg>
