<?xml version="1.0"?>
<svg xmlns="http://www.w3.org/2000/svg" height="512px" viewBox="0 0 60 60" width="512px"><g><g id="005---Leg-Hair"><path id="Shape" d="m44.5 31c8.5604136 0 15.5-6.9395864 15.5-15.5 0-8.56041362-6.9395864-15.5-15.5-15.5s-15.5 6.93958638-15.5 15.5c.0093692 8.5565298 6.9434702 15.4906308 15.5 15.5zm0-2c-6.8707505-.0099659-12.6409087-5.1726484-13.412-12h3.925c.2642894 5.0467155 4.433369 9.0031791 9.487 9.0031791s9.2227106-3.9564636 9.487-9.0031791h3.925c-.7706601 6.8275743-6.541076 11.9904874-13.412 12zm0-27c7.2539239.01155748 13.2032418 5.75115922 13.475 13h-4.985c-.2755784-.0004639-.5391332.1128168-.7284299.3130927s-.2875541.4697925-.2715701.7449073c.1358952 2.7685183-1.2662604 5.3862685-3.6461826 6.8072299-2.3799222 1.4209613-5.349535 1.4134283-7.7222175-.0195891s-3.7615391-4.0578476-3.6115999-6.8256408c.0053744-.2686646-.0976051-.5281869-.2857271-.7200714-.1881221-.1918845-.4455545-.2999823-.7142729-.2999286h-4.985c.2717582-7.24884078 6.2210761-12.98844252 13.475-13z" data-original="#000000" class="active-path" data-old_color="#000000" fill="#404040"/><path id="Shape" d="m3.814 34.062c2.252-4.828 4.263-8.819 5.556-11.323.515 2.961 1.721 7.289 4.53 10.391 1.95 2.16 4.258 4.273 6.294 6.138 6.056 5.546 6.449 5.921 5.188 9.96-.2711678.8111229-.4899516 1.638827-.655 2.478-.809 4.577 1.252 7.57 5.7 5.954 3.518-1.28 8.037-1.059 12.407.606 1.827.689 3.703 1.734 5.916 1.734 2.756 0 3.76-1.045 4.115-1.918 2.416-5.856-11.8-7.837-18.126-15.679-1.3362188-1.9296152-2.3494654-4.0638503-3-6.319-4.65-13.049-3.874-14.076-6.51-19.314-2.372-4.706-4.229-9.67-5.416-12.019-.9775387-2.25956814-2.948413-3.93748961-5.335-4.542-3.446-.791-7.778.791-12.895 4.714-.99245144.76187093-1.57682795 1.9398529-1.583 3.191v25.109c.00152649.9377787.6544312 1.7485672 1.57031286 1.950042.91588167.2014748 1.84876195-.2604743 2.24368714-1.111042zm-1.814-25.948c.0053911-.62822973.30065088-1.21874928.8-1.6 4.619-3.539 8.4-5 11.23-4.353 3.266.751 4.312 4.038 5.756 7.448 4.565 10.778 4.2 7.964 6.122 14.789 1.14 4.054 2.074 7.086 4.051 12.643.7011385 2.369789 1.7905978 4.6068301 3.224 6.62 6.017 7.451 19.158 10.444 17.832 13.662-.168.411-1.057.677-2.265.677-2.972 0-6.451-3.16-13.329-3.16-1.9342123-.0189564-3.8569458.2991304-5.682.94-.811.3-1.9.539-2.5.036-.639-.537-.853-2.014-.545-3.759.489-2.721 2.159-5.11.658-8.089-1.375-2.718-7.724-7.476-11.97-12.179-4.067-4.5-4.39-12.335-4.392-12.414-.0152462-.4512305-.3309557-.8362794-.7704481-.9396619-.43949233-.1033824-.89374794.1005464-1.1085519.4976619-.031.058-3.211 5.936-7.111 14.287z" data-original="#000000" class="active-path" data-old_color="#000000" fill="#404040"/><path id="Shape" d="m44.5 22c3.0361953-.0033068 5.4966932-2.4638047 5.5-5.5 0-3.041-2.967-2.506-1.03-10.257.3-1.206-.649-2.15-2.053-1.484-2.283 1.08-7.917 6.933-7.917 11.741.0033068 3.0361953 2.4638047 5.4966932 5.5 5.5zm2.184-14.7c-1.316 6.746 1.316 7.443 1.316 9.2 0 1.9329966-1.5670034 3.5-3.5 3.5s-3.5-1.5670034-3.5-3.5c0-3.27 3.613-7.469 5.684-9.2z" data-original="#000000" class="active-path" data-old_color="#000000" fill="#404040"/></g></g> </svg>
