<svg xmlns="http://www.w3.org/2000/svg" xmlns:xlink="http://www.w3.org/1999/xlink" width="19" height="19" viewBox="0 0 19 19"><defs><path id="c7x1a" d="M1562.62 66.87l1.4 1.4a1.02 1.02 0 0 0 1.45-1.44l-1.8-1.79a1.02 1.02 0 0 0-.92-.28l-4.48.9c-.47.1-.82.51-.82 1v5.37c0 .47.33.88.79 1 3.45.81 8.38-.54 12.6-4.76 4.22-4.21 5.57-9.15 4.75-12.6-.1-.46-.52-.79-1-.79h-5.37c-.48 0-.9.35-1 .82l-.9 4.48c-.06.34.04.68.29.92l1.25 1.26a10.68 10.68 0 0 1-2.24 2.73 1.02 1.02 0 1 0 1.34 1.54 12.68 12.68 0 0 0 3.07-4c.2-.4.12-.87-.2-1.18l-1.4-1.4.63-3.13h3.68c.3 2.75-.96 6.54-4.34 9.91-3.38 3.38-7.17 4.64-9.9 4.34V67.5z"/></defs><g><g transform="translate(-1557 -55)"><use fill="#ecd9b5" xlink:href="#c7x1a"/></g></g></svg>