<svg xmlns="http://www.w3.org/2000/svg" xmlns:xlink="http://www.w3.org/1999/xlink" width="20" height="20" viewBox="0 0 20 20"><defs><path id="9n7ya" d="M1368.94 46h-.94a1 1 0 1 1 0-2h.94a8 8 0 0 0-6.94-6.94V38a1 1 0 0 1-2 0v-.94a8 8 0 0 0-6.94 6.94h.94a1 1 0 1 1 0 2h-2a1 1 0 0 1-1-1 10 10 0 1 1 1.2 4.74 1 1 0 1 1 1.75-.95 8 8 0 0 0 14.99-2.8zm-3.98-3.72c-.89 2.99-1.4 4.4-1.84 4.84a3 3 0 1 1-4.24-4.24c.44-.45 1.85-.95 4.84-1.84a1 1 0 0 1 1.24 1.25zm-4.67 2.01a1 1 0 0 0 1.42 1.42c.05-.06.35-.87.78-2.2-1.33.43-2.14.73-2.2.78z"/></defs><g><g transform="translate(-1351 -35)"><use fill="#ecd9b5" xlink:href="#9n7ya"/></g></g></svg>