<svg xmlns="http://www.w3.org/2000/svg" viewBox="0 0 512 512"><path d="M437.333 192h-32v-42.667C405.333 66.99 338.344 0 256 0S106.667 66.99 106.667 149.333V192h-32A10.66 10.66 0 0064 202.667v266.667C64 492.865 83.135 512 106.667 512h298.667C428.865 512 448 492.865 448 469.333V202.667A10.66 10.66 0 00437.333 192zm-96 0H170.667v-42.667C170.667 102.281 208.948 64 256 64s85.333 38.281 85.333 85.333V192z" fill="#303c42"/><path d="M128 149.333c0-70.583 57.417-128 128-128s128 57.417 128 128V192h-21.333v-42.667c0-58.813-47.854-106.667-106.667-106.667S149.333 90.521 149.333 149.333V192H128v-42.667z" fill="#f2f2f2"/><path d="M426.667 469.333c0 11.76-9.573 21.333-21.333 21.333H106.667c-11.76 0-21.333-9.573-21.333-21.333v-256h341.333v256z" fill="#ffca28"/><path d="M128 469.333v-256H85.333v256c0 11.76 9.573 21.333 21.333 21.333H144c-8.82.001-16-9.572-16-21.333z" opacity=".2" fill="#fff"/><path d="M384 213.333v256c0 11.76-7.18 21.333-16 21.333h37.333c11.76 0 21.333-9.573 21.333-21.333v-256H384z" opacity=".1"/><path d="M230.792 354.313l-6.729 60.51a10.67 10.67 0 0010.604 11.844h42.667a10.67 10.67 0 0010.604-11.844l-6.729-60.51c10.927-7.948 17.458-20.521 17.458-34.313 0-23.531-19.135-42.667-42.667-42.667S213.333 296.469 213.333 320c0 13.792 6.532 26.365 17.459 34.313z" fill="#303c42"/><path d="M256 298.667c11.76 0 21.333 9.573 21.333 21.333 0 8.177-4.646 15.5-12.125 19.125a10.673 10.673 0 00-5.958 10.781l6.167 55.427h-18.833l6.167-55.427c.5-4.49-1.885-8.802-5.958-10.781-7.479-3.625-12.125-10.948-12.125-19.125-.001-11.76 9.572-21.333 21.332-21.333z" fill="#5c6671"/><path d="M247.716 340.001c-1.434-2.866-2.383-5.987-2.383-9.335 0-11.76 9.573-21.333 21.333-21.333 3.12 0 6.034.749 8.708 1.958-3.349-7.406-10.734-12.625-19.375-12.625-11.76 0-21.333 9.573-21.333 21.333 0 8.177 4.646 15.5 12.125 19.125.402.196.558.639.925.877zm14.211 33.964l-2.48-22.288c-.701-.608-1.125-1.466-1.988-1.885-2.096-1.016-3.9-2.376-5.512-3.911.385 1.323.962 2.599.803 4.026l-6.167 55.427h11.853l3.491-31.369z" opacity=".1"/><linearGradient id="a" gradientUnits="userSpaceOnUse" x1="-43.622" y1="637.269" x2="-23.837" y2="628.043" gradientTransform="matrix(21.3333 0 0 -21.3333 996.333 13791.667)"><stop offset="0" stop-color="#fff" stop-opacity=".2"/><stop offset="1" stop-color="#fff" stop-opacity="0"/></linearGradient><path d="M437.333 192h-32v-42.667C405.333 66.99 338.344 0 256 0S106.667 66.99 106.667 149.333V192h-32A10.66 10.66 0 0064 202.667v266.667C64 492.865 83.135 512 106.667 512h298.667C428.865 512 448 492.865 448 469.333V202.667A10.66 10.66 0 00437.333 192zm-96 0H170.667v-42.667C170.667 102.281 208.948 64 256 64s85.333 38.281 85.333 85.333V192z" fill="url(#a)"/></svg>