<svg height="512" width="512" xmlns="http://www.w3.org/2000/svg"><path d="M456 48h-48v-8a24 24 0 00-48 0v8h-80v-8a24 24 0 00-48 0v8h-80v-8a24 24 0 00-48 0v8H56a40.045 40.045 0 00-40 40v368a40.045 40.045 0 0040 40h400a40.045 40.045 0 0040-40V88a40.045 40.045 0 00-40-40zm-80-8a8 8 0 0116 0v48a8 8 0 01-16 0zm-128 0a8 8 0 0116 0v48a8 8 0 01-16 0zm-128 0a8 8 0 0116 0v48a8 8 0 01-16 0zM56 64h48v24a24 24 0 0048 0V64h80v24a24 24 0 0048 0V64h80v24a24 24 0 0048 0V64h48a24.028 24.028 0 0124 24v56H32V88a24.028 24.028 0 0124-24zm400 416H56a24.028 24.028 0 01-24-24V160h448v296a24.028 24.028 0 01-24 24z"/><path d="M440 216h-32a8 8 0 00-8 8v32a8 8 0 008 8h32a8 8 0 008-8v-32a8 8 0 00-8-8zm-8 32h-16v-16h16zM280 376h-32a8 8 0 00-8 8v32a8 8 0 008 8h32a8 8 0 008-8v-32a8 8 0 00-8-8zm-8 32h-16v-16h16zm-72-192h-32a8 8 0 00-8 8v32a8 8 0 008 8h32a8 8 0 008-8v-32a8 8 0 00-8-8zm-8 32h-16v-16h16zm-72 48H88a8 8 0 00-8 8v32a8 8 0 008 8h32a8 8 0 008-8v-32a8 8 0 00-8-8zm-8 32H96v-16h16zm88-32h-32a8 8 0 00-8 8v32a8 8 0 008 8h32a8 8 0 008-8v-32a8 8 0 00-8-8zm-8 32h-16v-16h16zm-72 48H88a8 8 0 00-8 8v32a8 8 0 008 8h32a8 8 0 008-8v-32a8 8 0 00-8-8zm-8 32H96v-16h16zm88-32h-32a8 8 0 00-8 8v32a8 8 0 008 8h32a8 8 0 008-8v-32a8 8 0 00-8-8zm-8 32h-16v-16h16zm177.208-159.017l-40-6.112-17.966-38.271a8 8 0 00-14.484 0L278.8 242.871l-40 6.112a8 8 0 00-4.518 13.5l29.181 29.907-6.9 42.326A8 8 0 00268.316 343L304 323.276 339.684 343a8 8 0 0011.766-8.289l-6.9-42.326 29.181-29.907a8 8 0 00-4.518-13.5zM330.274 284.1a8 8 0 00-2.17 6.875l4.9 30.051-25.136-13.9a8 8 0 00-7.74 0l-25.136 13.9 4.9-30.051a8 8 0 00-2.17-6.875L256.6 262.448l28.833-4.4a8 8 0 006.033-4.509L304 226.828l12.535 26.706a8 8 0 006.033 4.509l28.833 4.4zM440 296h-32a8 8 0 00-8 8v32a8 8 0 008 8h32a8 8 0 008-8v-32a8 8 0 00-8-8zm-8 32h-16v-16h16zm8 48h-32a8 8 0 00-8 8v32a8 8 0 008 8h32a8 8 0 008-8v-32a8 8 0 00-8-8zm-8 32h-16v-16h16zm-72-32h-32a8 8 0 00-8 8v32a8 8 0 008 8h32a8 8 0 008-8v-32a8 8 0 00-8-8zm-8 32h-16v-16h16z"/></svg>