<svg height="512" width="512" xmlns="http://www.w3.org/2000/svg"><path d="M256 248.5c-36.108 0-65.483 29.376-65.483 65.483s29.376 65.483 65.483 65.483 65.483-29.376 65.483-65.483S292.108 248.5 256 248.5zm0 115.967c-27.836 0-50.483-22.647-50.483-50.483s22.647-50.483 50.483-50.483c27.837 0 50.483 22.647 50.483 50.483.001 27.836-22.646 50.483-50.483 50.483zm0-134.1a7.5 7.5 0 007.5-7.5v-33.133a7.5 7.5 0 00-15 0v33.133a7.5 7.5 0 007.5 7.5zm0 167.233a7.5 7.5 0 00-7.5 7.5v33.133a7.5 7.5 0 0015 0V405.1a7.5 7.5 0 00-7.5-7.5zm69.734-24.491a7.5 7.5 0 00-10.607 10.606l23.429 23.429c1.465 1.464 3.385 2.197 5.304 2.197s3.839-.732 5.304-2.197a7.5 7.5 0 000-10.606zm-153.35-59.126a7.5 7.5 0 00-7.5-7.5H131.75a7.5 7.5 0 000 15h33.133a7.5 7.5 0 007.501-7.5zm207.866-7.5h-33.134c-4.143 0-7.5 3.358-7.5 7.5s3.357 7.5 7.5 7.5h33.134c4.143 0 7.5-3.358 7.5-7.5s-3.357-7.5-7.5-7.5zm-193.982-51.626c1.464 1.464 3.384 2.197 5.303 2.197s3.839-.732 5.303-2.197a7.5 7.5 0 000-10.606l-23.429-23.429a7.5 7.5 0 00-10.606 0 7.5 7.5 0 000 10.606zm0 118.252l-23.429 23.429a7.5 7.5 0 005.303 12.803 7.474 7.474 0 005.303-2.197l23.429-23.429a7.5 7.5 0 10-10.606-10.606zM320.43 257.054a7.478 7.478 0 005.304-2.197l23.429-23.429a7.5 7.5 0 00-10.607-10.606l-23.429 23.429a7.5 7.5 0 000 10.606 7.474 7.474 0 005.303 2.197z"/><path d="M454.801 33.133h-58.768v-9.066C396.033 10.796 385.238 0 371.967 0s-24.066 10.796-24.066 24.067v9.066H164.1v-9.066C164.1 10.796 153.304 0 140.033 0c-13.27 0-24.066 10.796-24.066 24.067v9.066H57.2c-22.405 0-40.633 18.228-40.633 40.632v397.602C16.567 493.773 34.795 512 57.2 512h51.268a7.5 7.5 0 000-15H57.2c-14.134 0-25.633-11.498-25.633-25.632v-1.635c6.998 5.705 15.921 9.134 25.633 9.134h397.601c9.711 0 18.634-3.429 25.632-9.134v1.635c0 14.134-11.498 25.632-25.632 25.632H138.467a7.5 7.5 0 000 15h316.334c22.404 0 40.632-18.227 40.632-40.632V73.766c0-22.405-18.228-40.633-40.632-40.633zm-91.9-9.066c0-5 4.067-9.067 9.066-9.067s9.066 4.067 9.066 9.067v49.7c0 4.999-4.067 9.067-9.066 9.067s-9.066-4.067-9.066-9.067zm-231.934 0c0-5 4.067-9.067 9.066-9.067 5 0 9.067 4.067 9.067 9.067v49.7c0 4.999-4.067 9.067-9.067 9.067-4.999 0-9.066-4.067-9.066-9.067zM57.2 48.133h58.767v18.133H106.9a7.5 7.5 0 000 15h10.27c3.16 9.608 12.212 16.567 22.864 16.567s19.704-6.959 22.864-16.567h10.269a7.5 7.5 0 000-15H164.1V48.133h183.8v18.133h-9.067c-4.143 0-7.5 3.358-7.5 7.5s3.357 7.5 7.5 7.5h10.27c3.16 9.608 12.212 16.567 22.864 16.567s19.704-6.959 22.863-16.567h10.27c4.143 0 7.5-3.358 7.5-7.5s-3.357-7.5-7.5-7.5h-9.066V48.133h58.768c14.134 0 25.632 11.499 25.632 25.632v42.201h-93.466c-4.143 0-7.5 3.358-7.5 7.5s3.357 7.5 7.5 7.5h93.466V149.1H31.567v-18.133h325.4c4.143 0 7.5-3.358 7.5-7.5s-3.357-7.5-7.5-7.5h-325.4V73.766c0-14.134 11.499-25.633 25.633-25.633zm397.601 415.733H57.2c-14.134 0-25.633-11.499-25.633-25.632V164.1h448.866v274.134c0 14.134-11.498 25.632-25.632 25.632z"/></svg>