<svg width="307" height="351" viewBox="0 0 307 351" fill="none" xmlns="http://www.w3.org/2000/svg">
<path d="M301.781 44.182L155.591 0.306954C154.217 -0.102318 152.77 -0.102318 151.395 0.306954L5.20461 44.182C2.11953 45.1033 0 47.9552 0 51.1876V212.063C0 276.735 98.5614 334.255 151.337 350.678C152.038 350.898 152.77 351 153.5 351C154.23 351 154.962 350.898 155.663 350.678C208.439 334.24 307 276.734 307 212.062V51.1876C307 47.9552 304.88 45.1177 301.781 44.182ZM292.381 212.062C292.381 263.41 211.056 317.406 153.5 336.024C95.945 317.406 14.6188 263.41 14.6188 212.062V56.6281L153.5 14.9468L292.381 56.6281V212.062V212.062Z" fill="#11BC7A"/>
<path d="M153.5 87.7499C109.16 87.7499 73.0955 123.83 73.0955 168.187C73.0955 212.545 109.16 248.625 153.5 248.625C197.84 248.625 233.905 212.546 233.905 168.188C233.905 123.83 197.84 87.7499 153.5 87.7499ZM153.5 234C117.23 234 87.7143 204.472 87.7143 168.187C87.7143 131.903 117.23 102.375 153.5 102.375C189.77 102.375 219.286 131.903 219.286 168.187C219.286 204.472 189.77 234 153.5 234Z" fill="#11BC7A"/>
<path d="M202.518 133.775C199.667 130.923 195.033 130.923 192.182 133.775L138.881 187.097L114.804 163.024C111.953 160.172 107.318 160.172 104.468 163.024C101.617 165.876 101.617 170.513 104.468 173.364L133.706 202.615C135.139 204.033 137.01 204.75 138.881 204.75C140.753 204.75 142.623 204.034 144.042 202.615L202.518 144.115C205.369 141.263 205.369 136.627 202.518 133.775Z" fill="#11BC7A"/>
</svg>
