<?xml version="1.0" encoding="utf-8"?>
<!-- Generator: Adobe Illustrator 16.0.0, SVG Export Plug-In . SVG Version: 6.00 Build 0)  -->
<!DOCTYPE svg PUBLIC "-//W3C//DTD SVG 1.1//EN" "http://www.w3.org/Graphics/SVG/1.1/DTD/svg11.dtd">
<svg version="1.1" id="Слой_1" xmlns="http://www.w3.org/2000/svg" xmlns:xlink="http://www.w3.org/1999/xlink" x="0px" y="0px"
	 width="59.306px" height="37.214px" viewBox="0 0 59.306 37.214" enable-background="new 0 0 59.306 37.214" xml:space="preserve">
<g>
	<defs>
		<rect id="SVGID_1_" y="0" width="59.306" height="37.214"/>
	</defs>
	<clipPath id="SVGID_2_">
		<use xlink:href="#SVGID_1_"  overflow="visible"/>
	</clipPath>
	<path clip-path="url(#SVGID_2_)" fill="#B09571" d="M11.335,21.934c-0.685,0.23-1.444,0.328-2.238,0.328
		C3.177,22.262,0,17.916,0,13.075C0,6.95,5.054,0,16.028,0c6.787,0,12.851,2.997,12.851,9.024c0,2.996-1.588,5.994-4.946,7.607
		c4.585,1.746,6.787,5.533,6.787,9.386c0,5.466-4.439,11.032-12.778,11.032c-4.223,0-6.751-0.725-8.411-1.351
		c-1.805,1.088-3.717,1.516-5.558,1.516l0.612-4.249c0.434-0.099,0.903-0.132,1.409-0.132c1.227,0,2.49,0.297,3.537,0.791
		c2.564-2.306,4.043-7.937,5.27-15.939c0.939-6.159,1.734-10.308,2.708-12.942l3.358,0.756c-0.903,2.338-1.732,5.205-2.455,10.144
		c1.118,0.033,2.166,0.132,3.103,0.296c2.781-1.251,4.08-3.919,4.08-6.586c0-5.137-4.837-7.707-9.783-7.707
		C7.039,1.646,2.96,7.508,2.96,12.481c0,3.623,2.202,6.785,6.281,6.785c0.542,0,1.048-0.066,1.516-0.165L11.335,21.934z
		 M27.219,25.852c0-3.49-1.768-6.981-5.452-8.43c-1.082,0.296-2.31,0.461-3.646,0.494c-1.228,8.727-3.789,13.766-6.786,16.465
		c1.66,0.561,3.681,1.021,6.606,1.021C24.006,35.403,27.219,30.594,27.219,25.852"/>
	<path clip-path="url(#SVGID_2_)" fill="#B09571" d="M42.664,21.538c0.218,0,1.013,0.265,1.013,0.461
		c-1.806,4.315-3.61,7.739-7.149,7.739c-3.139,0-4.439-2.634-4.439-5.729c0-4.479,2.708-9.946,6.751-9.946
		c1.805,0,2.708,1.185,2.708,2.7c0,2.338-2.166,5.5-6.426,6.125v0.495c0,1.975,0.614,3.556,2.274,3.556
		C39.524,26.939,41.294,24.897,42.664,21.538 M35.229,21.637c2.708-1.219,3.898-3.491,3.898-4.709c0-0.494-0.217-0.823-0.578-0.823
		C37.069,16.105,35.663,18.903,35.229,21.637"/>
	<path clip-path="url(#SVGID_2_)" fill="#B09571" d="M43.782,26.05c0.471,0.725,0.903,0.988,1.591,0.988
		c0.9,0,1.406-0.594,1.406-1.779c0-2.042-1.048-4.017-1.841-6.356c-0.396,1.087-0.866,2.108-1.264,3.096c0,0-1.01-0.165-1.01-0.428
		v-0.034c0.47-1.118,1.154-2.601,1.841-4.182c-0.253-0.988-0.434-2.041-0.434-3.161c0-1.317,0.252-2.767,0.83-4.38l2.455,0.428
		c-0.288,1.778-0.649,3.359-1.084,4.808c0.109,2.766,3.646,6.192,3.646,9.879v0.133c0.686-1.021,1.264-2.239,1.806-3.524
		c0.215,0,1.01,0.264,1.01,0.462c-1.659,3.952-3.682,7.739-7.58,7.739c-1.695,0-3.068-0.891-3.574-2.239L43.782,26.05z"/>
	<path clip-path="url(#SVGID_2_)" fill="#B09571" d="M57.318,6.62c-0.18,2.7-0.54,5.203-1.154,7.838
		c0.578,0,1.082-0.032,1.407-0.066l-0.325,1.548c-0.144,0.034-0.829,0.034-1.479,0.034c-0.325,1.25-0.688,2.535-1.118,3.884
		c-0.362,2.272-0.542,3.986-0.542,5.205c0,1.382,0.253,2.106,0.72,2.106c0.977,0,2.383-3.096,3.467-5.632
		c0.218,0,1.012,0.297,1.012,0.461c-2.132,5.271-3.25,7.575-5.597,7.575c-1.588,0-2.237-1.779-2.237-4.577
		c0-2.404,0.396-5.665,1.226-9.023c-0.829,0-1.442,0-1.587-0.034l0.252-1.548c0.253,0,0.868,0.034,1.624,0.034
		c0.47-2.273,0.94-4.48,1.769-7.806H57.318z"/>
</g>
</svg>
