<svg xmlns="http://www.w3.org/2000/svg" width="13.97" height="15" viewBox="0 0 13.97 15" id="svg-1" fill-opacity="1" type="solidColor" fill="#b4afd6">
  <defs id="defs-2">
    <style id="style-3">
	.cls-1 { fill-rule: evenodd; }
</style>
  </defs>
  <path id="phone.svg" class="cls-1" d="M1099.36,165.794a0.536,0.536,0,0,0,.13-0.773,0.622,0.622,0,0,0-.83-0.12,0.526,0.526,0,0,0-.12.773A0.611,0.611,0,0,0,1099.36,165.794Zm-1.67,1.141a0.527,0.527,0,0,0,.13-0.772,0.611,0.611,0,0,0-.82-0.12,0.528,0.528,0,0,0-.13.773A0.61,0.61,0,0,0,1097.69,166.935Zm-1.66,1.142a0.535,0.535,0,0,0,.13-0.772,0.626,0.626,0,0,0-.83-0.12,0.536,0.536,0,0,0-.13.773A0.624,0.624,0,0,0,1096.03,168.077Zm2.76,7.3c-0.01-.012-0.01-0.024-0.02-0.036s-0.01-.025-0.01-0.037-0.01-.019-0.02-0.029-0.01-.026-0.02-0.039-0.01,0-.01,0a0.043,0.043,0,0,0-.02-0.026l-0.03-.026-1.86-1.64a0.435,0.435,0,0,0-.59.017,0.384,0.384,0,0,0,.01.558l1.49,1.31a4.18,4.18,0,0,1-1.98.783h0a1.433,1.433,0,0,1-.64-0.144h0l-0.03-.018a17.214,17.214,0,0,1-5.03-4.085l-0.14-.168a15.982,15.982,0,0,1-2.99-5.569V166.2a0.949,0.949,0,0,1-.01-0.591,4.81,4.81,0,0,1,.99-1.5l1.12,1.7a0.432,0.432,0,0,0,.36.187,0.427,0.427,0,0,0,.22-0.059,0.381,0.381,0,0,0,.14-0.543l-1.39-2.108a0.349,0.349,0,0,0-.08-0.087c-0.01-.006-0.01-0.013-0.02-0.018a0.435,0.435,0,0,0-.59,0,6.1,6.1,0,0,0-1.54,2.147,1.69,1.69,0,0,0-.01,1.084,16.77,16.77,0,0,0,3.14,5.854l0.14,0.168a18.089,18.089,0,0,0,5.28,4.292,2.34,2.34,0,0,0,1.08.26h0a5.509,5.509,0,0,0,2.9-1.214l0.03-.026a0.035,0.035,0,0,0,.02-0.02s0,0,.01,0,0.02-.024.03-0.037a0.049,0.049,0,0,1,.02-0.026,0.074,0.074,0,0,1,.02-0.038c0-.01.01-0.021,0.01-0.032a0.052,0.052,0,0,0,.01-0.037,0.05,0.05,0,0,0,.01-0.036v-0.041c0-.012.01-0.023,0.01-0.034s-0.01-.028-0.01-0.042v-0.034Zm0.67-2.231a22.58,22.58,0,0,0-2.34-2,1.128,1.128,0,0,0-.83-0.253,1.287,1.287,0,0,0-.83.487c-0.13.145-.34,0.4-0.42,0.483a0.755,0.755,0,0,1-1.1.231,12.6,12.6,0,0,1-1.82-1.877,0.053,0.053,0,0,1-.02-0.028c-0.01,0-.01,0-0.01,0s-0.01-.016-0.02-0.024a12.737,12.737,0,0,1-1.5-2.124c-0.08-.248-0.19-0.613.51-0.938,0.01,0,.03-0.012.05-0.022a3.331,3.331,0,0,0,1.01-.566,0.984,0.984,0,0,0,.23-1.235,23.16,23.16,0,0,0-1.77-2.735,1.289,1.289,0,0,0-1.74-.342l0.47,0.659a0.408,0.408,0,0,1,.59.146,23.679,23.679,0,0,1,1.7,2.617,0.249,0.249,0,0,1-.08.331,2.741,2.741,0,0,1-.73.4c-0.05.018-.08,0.032-0.1,0.04a1.447,1.447,0,0,0-.93,1.919c0.01,0.014.01,0.028,0.02,0.041a13.039,13.039,0,0,0,1.62,2.307,0.011,0.011,0,0,0,.01.012c0,0.007.01,0.014,0.01,0.02a13.448,13.448,0,0,0,1.99,2.033c0.01,0.01.03,0.018,0.04,0.027a1.631,1.631,0,0,0,2.21-.373c0.09-.1.33-0.382,0.44-0.5a0.013,0.013,0,0,1,.01-0.013,0.448,0.448,0,0,1,.26-0.182,0.293,0.293,0,0,1,.2.081,21.937,21.937,0,0,1,2.22,1.9c0.01,0.013.03,0.026,0.04,0.038,0.4,0.375.28,0.6,0.24,0.674a0.383,0.383,0,0,0,.17.533,0.469,0.469,0,0,0,.2.045,0.416,0.416,0,0,0,.37-0.212A1.232,1.232,0,0,0,1099.46,173.148Zm-5.1-3.929a0.527,0.527,0,0,0,.13-0.772,0.611,0.611,0,0,0-.82-0.12,0.528,0.528,0,0,0-.13.773A0.61,0.61,0,0,0,1094.36,169.219Z" transform="translate(-1086 -162)" fill="#E63A6B" fill-opacity="1" type="solidColor"></path>
</svg>