<svg xmlns="http://www.w3.org/2000/svg" width="242" height="228" viewBox="0 0 242 228">
  <defs>
    <style>
      .cls-1 {
        fill: #d5d5d5;
        fill-rule: evenodd;
      }
    </style>
  </defs>
  <path id="img.svg" class="cls-1" d="M675.612,481.454h-1.99L670,454.784A15.9,15.9,0,0,0,652.1,441.151l-189.079,25.8a15.8,15.8,0,0,0-10.521,6.169,16.11,16.11,0,0,0-3.366,11.831l18.417,138.176v30.1c0,8.809,7.659,15.778,16.432,15.778H675.612c8.772,0,15.388-6.969,15.388-15.778V497.629C691,488.82,684.384,481.454,675.612,481.454ZM467.549,497.629v1.008l-1.79-15.172L653.451,457.8l3.342,23.656H483.981C475.208,481.454,467.549,488.82,467.549,497.629ZM674.324,652.255h-190.1V498.2h190.1V652.255ZM559.237,584.42l13.8,12.6a7.525,7.525,0,0,0,11.108-1.056l40.253-53.635a6.907,6.907,0,0,1,11.469.061l26.79,37.359v-71.5H494.229V619.435L549.9,583.652A7.791,7.791,0,0,1,559.237,584.42ZM524.655,555.9a15.968,15.968,0,1,1,15.9-15.968A15.934,15.934,0,0,1,524.655,555.9Z" transform="translate(-449 -441)"/>
</svg>
